<svg width="54" height="54" viewBox="0 0 54 54" fill="none" xmlns="http://www.w3.org/2000/svg">
<g clip-path="url(#clip0_4_37)">
<path d="M14.0333 40.5844C14.2436 40.6545 14.4381 40.7654 14.6056 40.9108C14.7731 41.0562 14.9103 41.2331 15.0093 41.4315C15.1084 41.6299 15.1673 41.8459 15.1829 42.0671C15.1984 42.2883 15.1701 42.5105 15.0998 42.7208L13.4123 47.7833C13.2586 48.1918 12.9527 48.5249 12.5587 48.7126C12.1646 48.9004 11.7132 48.9282 11.2991 48.7902C10.8851 48.6521 10.5406 48.359 10.338 47.9724C10.1354 47.5858 10.0906 47.1358 10.2128 46.7167L11.9003 41.6542C12.0413 41.2295 12.3452 40.8782 12.7452 40.6776C13.1452 40.477 13.6085 40.4434 14.0333 40.5844ZM24.1583 40.5844C24.3686 40.6545 24.5631 40.7654 24.7306 40.9108C24.8981 41.0562 25.0353 41.2331 25.1343 41.4315C25.2334 41.6299 25.2923 41.8459 25.3079 42.0671C25.3234 42.2883 25.2951 42.5105 25.2248 42.7208L21.8498 52.8458C21.6961 53.2543 21.3902 53.5874 20.9962 53.7751C20.6021 53.9629 20.1507 53.9907 19.7366 53.8527C19.3226 53.7146 18.9781 53.4215 18.7755 53.0349C18.5729 52.6483 18.5281 52.1983 18.6503 51.7792L22.0253 41.6542C22.1663 41.2295 22.4702 40.8782 22.8702 40.6776C23.2702 40.477 23.7335 40.4434 24.1583 40.5844ZM34.2833 40.5844C34.4936 40.6545 34.6881 40.7654 34.8556 40.9108C35.0231 41.0562 35.1603 41.2331 35.2593 41.4315C35.3584 41.6299 35.4173 41.8459 35.4329 42.0671C35.4484 42.2883 35.4201 42.5105 35.3498 42.7208L33.6623 47.7833C33.5086 48.1918 33.2027 48.5249 32.8087 48.7126C32.4146 48.9004 31.9632 48.9282 31.5491 48.7902C31.1351 48.6521 30.7906 48.359 30.588 47.9724C30.3854 47.5858 30.3406 47.1358 30.4628 46.7167L32.1503 41.6542C32.2913 41.2295 32.5952 40.8782 32.9952 40.6776C33.3952 40.477 33.8585 40.4434 34.2833 40.5844ZM44.4083 40.5844C44.6186 40.6545 44.8131 40.7654 44.9806 40.9108C45.1481 41.0562 45.2853 41.2331 45.3843 41.4315C45.4834 41.6299 45.5423 41.8459 45.5579 42.0671C45.5734 42.2883 45.5451 42.5105 45.4748 42.7208L42.0998 52.8458C42.0362 53.0637 41.9293 53.2665 41.7855 53.4422C41.6418 53.6178 41.464 53.7627 41.2629 53.868C41.0619 53.9734 40.8416 54.0371 40.6154 54.0553C40.3891 54.0735 40.1615 54.0459 39.9461 53.9742C39.7308 53.9024 39.5321 53.7879 39.3621 53.6375C39.192 53.4872 39.054 53.3041 38.9564 53.0991C38.8587 52.8942 38.8034 52.6717 38.7938 52.4449C38.7841 52.2181 38.8204 51.9917 38.9003 51.7792L42.2753 41.6542C42.4163 41.2295 42.7202 40.8782 43.1202 40.6776C43.5202 40.477 43.9835 40.4434 44.4083 40.5844ZM45.2419 16.9661C44.541 13.433 42.7283 10.2168 40.0687 7.78774C37.4091 5.35865 34.0422 3.84408 30.4602 3.46548C26.8782 3.08688 23.2691 3.86411 20.1604 5.68353C17.0518 7.50295 14.6068 10.2691 13.1828 13.5776C11.5858 13.3937 9.96817 13.5376 8.4288 14.0005C6.88943 14.4635 5.46075 15.2358 4.23023 16.2701C2.99971 17.3044 1.99325 18.579 1.27246 20.0159C0.551675 21.4527 0.131736 23.0215 0.0383521 24.6263C-0.0550314 26.2311 0.180107 27.838 0.72937 29.3487C1.27863 30.8595 2.13046 32.2422 3.23271 33.4123C4.33495 34.5823 5.66441 35.5151 7.13969 36.1535C8.61497 36.7919 10.205 37.1225 11.8125 37.125H43.875C46.4438 37.1279 48.9176 36.1544 50.7954 34.4016C52.6732 32.6488 53.8146 30.2478 53.9884 27.685C54.1622 25.1221 53.3553 22.589 51.7313 20.5988C50.1073 18.6085 47.7875 17.31 45.2419 16.9661ZM28.6875 6.75C32.0084 6.74931 35.213 7.97266 37.6886 10.1861C40.1642 12.3996 41.7371 15.4479 42.1065 18.7481C42.1524 19.1628 42.3502 19.5457 42.6619 19.8231C42.9735 20.1004 43.3768 20.2525 43.794 20.25H43.875C45.6652 20.25 47.3821 20.9612 48.648 22.227C49.9139 23.4929 50.625 25.2098 50.625 27C50.625 28.7902 49.9139 30.5071 48.648 31.773C47.3821 33.0388 45.6652 33.75 43.875 33.75H11.8125C10.618 33.7494 9.43725 33.4952 8.34834 33.0042C7.25942 32.5132 6.28718 31.7965 5.49591 30.9017C4.70465 30.0068 4.11241 28.9542 3.75836 27.8134C3.40431 26.6725 3.29652 25.4695 3.44213 24.284C3.58775 23.0984 3.98343 21.9572 4.60302 20.936C5.22261 19.9147 6.05198 19.0367 7.03627 18.3599C8.02055 17.6831 9.13732 17.2231 10.3127 17.0101C11.4881 16.7972 12.6952 16.8363 13.8544 17.1248C14.2679 17.2279 14.7052 17.1707 15.0783 16.9648C15.4514 16.7588 15.7328 16.4193 15.8659 16.0144C16.7578 13.3183 18.4768 10.972 20.7786 9.30886C23.0804 7.6457 25.8478 6.75033 28.6875 6.75Z" fill="white"/>
</g>
<defs>
<clipPath id="clip0_4_37">
<rect width="54" height="54" fill="white"/>
</clipPath>
</defs>
</svg>
