<svg width="54" height="54" viewBox="0 0 54 54" fill="none" xmlns="http://www.w3.org/2000/svg">
<g clip-path="url(#clip0_4_33)">
<path d="M23.625 27C25.192 26.9998 26.7433 27.3114 28.1887 27.9166C29.6341 28.5218 30.9447 29.4085 32.044 30.5252C33.1434 31.6418 34.0096 32.966 34.5922 34.4206C35.1748 35.8753 35.4621 37.4313 35.4375 38.9981C35.4335 39.2575 35.4894 39.5144 35.6009 39.7487C35.7123 39.983 35.8762 40.1884 36.08 40.349C36.2837 40.5097 36.5217 40.6212 36.7756 40.6749C37.0294 40.7285 37.2922 40.723 37.5435 40.6586C38.2918 40.4669 39.0741 40.4486 39.8306 40.6052C40.5871 40.7618 41.2978 41.0891 41.9085 41.5621C42.5193 42.0352 43.0139 42.6415 43.3547 43.3347C43.6955 44.028 43.8735 44.79 43.875 45.5625C43.875 46.9052 43.3416 48.1928 42.3922 49.1422C41.4428 50.0916 40.1552 50.625 38.8125 50.625H10.125C9.22759 50.6199 8.3402 50.436 7.51474 50.0839C6.68928 49.7318 5.94232 49.2186 5.31755 48.5744C4.69278 47.9301 4.20274 47.1678 3.87611 46.3319C3.54947 45.4961 3.39279 44.6035 3.41523 43.7063C3.43767 42.8092 3.63878 41.9255 4.00679 41.107C4.37481 40.2886 4.90235 39.5517 5.55854 38.9395C6.21474 38.3273 6.98642 37.8521 7.82845 37.5417C8.67049 37.2313 9.56596 37.0919 10.4625 37.1317C10.8514 37.1518 11.2352 37.0367 11.5489 36.806C11.8626 36.5753 12.0869 36.2433 12.1837 35.8661C12.8384 33.3292 14.3174 31.0817 16.3884 29.4768C18.4594 27.8719 21.005 27.0007 23.625 27ZM38.7214 37.125C38.3417 33.7032 36.8106 30.512 34.3793 28.0745C31.948 25.637 28.7606 24.0979 25.3398 23.7095C21.919 23.3211 18.4677 24.1065 15.5518 25.937C12.636 27.7674 10.4285 30.5342 9.29137 33.7837C6.68567 33.997 4.26347 35.21 2.5318 37.1687C0.800126 39.1274 -0.10677 41.68 0.000945259 44.2922C0.10866 46.9044 1.22264 49.3736 3.10969 51.1831C4.99674 52.9926 7.51058 54.002 10.125 54H38.8125C41.0503 54 43.1964 53.1111 44.7787 51.5287C46.361 49.9464 47.25 47.8003 47.25 45.5625C47.25 43.3247 46.361 41.1786 44.7787 39.5963C43.1964 38.0139 41.0503 37.125 38.8125 37.125H38.7214Z" fill="white"/>
<path d="M35.4375 5.0625C35.4375 4.61495 35.2597 4.18572 34.9432 3.86926C34.6268 3.55279 34.1976 3.375 33.75 3.375C33.3025 3.375 32.8732 3.55279 32.5568 3.86926C32.2403 4.18572 32.0625 4.61495 32.0625 5.0625V8.4375C32.0625 8.88505 32.2403 9.31427 32.5568 9.63074C32.8732 9.94721 33.3025 10.125 33.75 10.125C34.1976 10.125 34.6268 9.94721 34.9432 9.63074C35.2597 9.31427 35.4375 8.88505 35.4375 8.4375V5.0625ZM48.0701 11.691C48.2313 11.5353 48.3599 11.3491 48.4483 11.1432C48.5367 10.9374 48.5833 10.7159 48.5852 10.4919C48.5872 10.2678 48.5445 10.0456 48.4596 9.8382C48.3748 9.63082 48.2495 9.4424 48.091 9.28396C47.9326 9.12551 47.7442 9.00021 47.5368 8.91536C47.3294 8.83051 47.1072 8.78782 46.8831 8.78977C46.6591 8.79171 46.4376 8.83826 46.2318 8.9267C46.0259 9.01514 45.8397 9.1437 45.684 9.30487L43.2945 11.691C42.9776 12.0079 42.7996 12.4376 42.7996 12.8857C42.7996 13.3339 42.9776 13.7636 43.2945 14.0805C43.6114 14.3974 44.0411 14.5754 44.4893 14.5754C44.9374 14.5754 45.3671 14.3974 45.684 14.0805L48.0701 11.691ZM21.816 9.30487C21.4977 8.99748 21.0715 8.82739 20.629 8.83124C20.1866 8.83508 19.7633 9.01255 19.4504 9.32543C19.1376 9.63831 18.9601 10.0616 18.9562 10.504C18.9524 10.9465 19.1225 11.3727 19.4299 11.691L21.816 14.0805C21.9729 14.2374 22.1592 14.3619 22.3642 14.4468C22.5692 14.5317 22.7889 14.5754 23.0108 14.5754C23.2326 14.5754 23.4524 14.5317 23.6573 14.4468C23.8623 14.3619 24.0486 14.2374 24.2055 14.0805C24.3624 13.9236 24.4869 13.7373 24.5718 13.5323C24.6567 13.3273 24.7004 13.1076 24.7004 12.8857C24.7004 12.6639 24.6567 12.4442 24.5718 12.2392C24.4869 12.0342 24.3624 11.8479 24.2055 11.691L21.816 9.30487ZM27.6683 20.6921C28.0877 19.8229 28.6887 19.0537 29.4307 18.4364C30.1728 17.8192 31.0385 17.3682 31.9696 17.114C32.9007 16.8598 33.8755 16.8082 34.8282 16.9627C35.781 17.1173 36.6895 17.4743 37.4925 18.0098C38.2955 18.5453 38.9743 19.2468 39.4832 20.067C39.992 20.8871 40.3191 21.8069 40.4423 22.7642C40.5655 23.7214 40.4819 24.694 40.1973 25.6163C39.9126 26.5385 39.4335 27.389 38.7923 28.1104C39.4639 29.0588 40.0478 30.0746 40.5338 31.1411C41.6775 30.1077 42.5702 28.8268 43.1438 27.396C43.7174 25.9652 43.9567 24.4223 43.8435 22.885C43.7303 21.3476 43.2676 19.8565 42.4906 18.5251C41.7137 17.1937 40.643 16.0574 39.3602 15.2026C38.0774 14.3479 36.6164 13.7973 35.0885 13.5929C33.5606 13.3885 32.0062 13.5356 30.5439 14.0231C29.0815 14.5106 27.7497 15.3256 26.6501 16.4058C25.5505 17.4861 24.7121 18.8032 24.1988 20.2568C25.3868 20.2939 26.5478 20.4424 27.6683 20.6921ZM42.8018 34.4419C44.8268 35.1675 46.5986 36.4331 47.9385 38.0599C48.1222 37.9111 48.2727 37.7253 48.38 37.5147C48.4874 37.304 48.5493 37.0732 48.5617 36.837C48.5741 36.6009 48.5367 36.3649 48.4521 36.1441C48.3674 35.9234 48.2373 35.7229 48.0701 35.5556L45.684 33.1695C45.4434 32.9275 45.1352 32.7641 44.7998 32.7009C44.4645 32.6377 44.1179 32.6776 43.8057 32.8154C43.4936 32.9532 43.2305 33.1824 43.0513 33.4728C42.872 33.7632 42.785 34.1011 42.8018 34.4419ZM48.9375 21.9375C48.49 21.9375 48.0607 22.1153 47.7443 22.4318C47.4278 22.7482 47.25 23.1774 47.25 23.625C47.25 24.0726 47.4278 24.5018 47.7443 24.8182C48.0607 25.1347 48.49 25.3125 48.9375 25.3125H52.3125C52.7601 25.3125 53.1893 25.1347 53.5057 24.8182C53.8222 24.5018 54 24.0726 54 23.625C54 23.1774 53.8222 22.7482 53.5057 22.4318C53.1893 22.1153 52.7601 21.9375 52.3125 21.9375H48.9375Z" fill="white"/>
</g>
<defs>
<clipPath id="clip0_4_33">
<rect width="54" height="54" fill="white"/>
</clipPath>
</defs>
</svg>
